HIERARCHY
ROOT Hips
{
	OFFSET 0.000000 83.214638 0.000000
	CHANNELS 6 Xposition Yposition Zposition Xrotation Yrotation Zrotation
	JOINT Pelvis
	{
		OFFSET 0.000000 0.000000 0.000000
		CHANNELS 3 Xrotation Yrotation Zrotation
		JOINT LeftUpLeg
		{
			OFFSET 8.479700 -4.795502 -0.379100
			CHANNELS 3 Xrotation Yrotation Zrotation
			JOINT LeftLeg
			{
				OFFSET 0.024144 -32.555107 0.112900
				CHANNELS 3 Xrotation Yrotation Zrotation
				JOINT LeftFoot
				{
					OFFSET -0.024144 -32.638630 -3.012600
					CHANNELS 3 Xrotation Yrotation Zrotation
					JOINT LeftToeBase
					{
						OFFSET 0.970200 -13.225400 11.864200
						CHANNELS 3 Xrotation Yrotation Zrotation
						End Site
						{
							OFFSET 0.000000 12.319262 0.000000
						}
					}
					JOINT LFootTongue
					{
						OFFSET 1.142400 -1.059800 6.665200
						CHANNELS 3 Xrotation Yrotation Zrotation
						End Site
						{
							OFFSET 0.000000 12.319262 0.000000
						}
					}
				}
				JOINT LeftPantLeg
				{
					OFFSET 0.918482 -16.533964 -2.284700
					CHANNELS 3 Xrotation Yrotation Zrotation
					End Site
					{
						OFFSET 0.350399 24.744368 0.000000
					}
				}
			}
		}
		JOINT RightUpLeg
		{
			OFFSET -8.479700 -4.795502 -0.379100
			CHANNELS 3 Xrotation Yrotation Zrotation
			JOINT RightLeg
			{
				OFFSET -0.023144 -32.555092 0.112900
				CHANNELS 3 Xrotation Yrotation Zrotation
				JOINT RightFoot
				{
					OFFSET 0.023144 -32.638641 -3.012700
					CHANNELS 3 Xrotation Yrotation Zrotation
					JOINT RightToeBase
					{
						OFFSET -0.970200 -13.225400 11.864200
						CHANNELS 3 Xrotation Yrotation Zrotation
						End Site
						{
							OFFSET 0.000000 12.319244 0.000000
						}
					}
					JOINT RFootTongue
					{
						OFFSET -1.142200 -1.059800 6.665200
						CHANNELS 3 Xrotation Yrotation Zrotation
						End Site
						{
							OFFSET 0.000000 12.319243 0.000000
						}
					}
				}
				JOINT RightPantLeg
				{
					OFFSET -0.919482 -16.533978 -2.284800
					CHANNELS 3 Xrotation Yrotation Zrotation
					End Site
					{
						OFFSET -0.350400 24.744419 0.000000
					}
				}
			}
		}
	}
	JOINT Spine
	{
		OFFSET 0.000000 7.722000 1.166200
		CHANNELS 3 Xrotation Yrotation Zrotation
		JOINT Spine1
		{
			OFFSET 0.000000 12.024101 0.248800
			CHANNELS 3 Xrotation Yrotation Zrotation
			JOINT Spine2
			{
				OFFSET 0.000000 11.502998 -0.491200
				CHANNELS 3 Xrotation Yrotation Zrotation
				JOINT Neck
				{
					OFFSET 0.000000 18.430702 -3.123100
					CHANNELS 3 Xrotation Yrotation Zrotation
					JOINT Head
					{
						OFFSET 0.000000 9.051102 1.034000
						CHANNELS 3 Xrotation Yrotation Zrotation
						JOINT HairB
						{
							OFFSET 0.208400 24.786102 24.822300
							CHANNELS 3 Xrotation Yrotation Zrotation
							End Site
							{
								OFFSET 0.000000 32.263779 0.000000
							}
						}
						JOINT HairA
						{
							OFFSET -7.081100 24.428299 23.196600
							CHANNELS 3 Xrotation Yrotation Zrotation
							End Site
							{
								OFFSET 0.000000 32.263779 0.000000
							}
						}
						JOINT Hat
						{
							OFFSET 16.728800 15.048294 -15.439601
							CHANNELS 3 Xrotation Yrotation Zrotation
							End Site
							{
								OFFSET 0.000000 32.263779 0.000000
							}
						}
					}
				}
				JOINT LeftShoulder
				{
					OFFSET 6.197800 13.665199 -4.064700
					CHANNELS 3 Xrotation Yrotation Zrotation
					JOINT LeftArm
					{
						OFFSET 7.778100 -0.187103 -1.709300
						CHANNELS 3 Xrotation Yrotation Zrotation
						JOINT LeftForeArm
						{
							OFFSET 22.049376 0.000000 0.000000
							CHANNELS 3 Xrotation Yrotation Zrotation
							JOINT LeftHand
							{
								OFFSET 23.009392 0.000000 0.000000
								CHANNELS 3 Xrotation Yrotation Zrotation
								JOINT LeftHandThumb1
								{
									OFFSET 3.507191 -2.063065 3.133727
									CHANNELS 3 Xrotation Yrotation Zrotation
									JOINT LeftHandThumb2
									{
										OFFSET 3.101337 -1.790558 1.790558
										CHANNELS 3 Xrotation Yrotation Zrotation
										JOINT LeftHandThumb3
										{
											OFFSET 3.058640 -1.765907 1.765906
											CHANNELS 3 Xrotation Yrotation Zrotation
											End Site
											{
												OFFSET -0.415260 3.926476 -0.049563
											}
										}
									}
								}
								JOINT LeftHandIndex1
								{
									OFFSET 11.334419 -0.901459 3.706815
									CHANNELS 3 Xrotation Yrotation Zrotation
									JOINT LeftHandIndex2
									{
										OFFSET 3.283112 0.000000 0.000000
										CHANNELS 3 Xrotation Yrotation Zrotation
										JOINT LeftHandIndex3
										{
											OFFSET 3.323853 0.000000 0.000000
											CHANNELS 3 Xrotation Yrotation Zrotation
											End Site
											{
												OFFSET -1.135597 3.097809 0.402452
											}
										}
									}
								}
								JOINT LeftHandMiddle1
								{
									OFFSET 11.335861 0.000000 0.000000
									CHANNELS 3 Xrotation Yrotation Zrotation
									JOINT LeftHandMiddle2
									{
										OFFSET 3.410492 0.000000 0.000000
										CHANNELS 3 Xrotation Yrotation Zrotation
										JOINT LeftHandMiddle3
										{
											OFFSET 3.312172 0.000000 0.000000
											CHANNELS 3 Xrotation Yrotation Zrotation
											End Site
											{
												OFFSET -1.150200 3.080154 0.400270
											}
										}
									}
								}
								JOINT LeftHandRing1
								{
									OFFSET 11.514786 -0.013176 -3.003090
									CHANNELS 3 Xrotation Yrotation Zrotation
									JOINT LeftHandRing2
									{
										OFFSET 3.053307 0.000000 0.000000
										CHANNELS 3 Xrotation Yrotation Zrotation
										JOINT LeftHandRing3
										{
											OFFSET 3.295807 0.000000 0.000000
											CHANNELS 3 Xrotation Yrotation Zrotation
											End Site
											{
												OFFSET -1.281006 3.013344 0.375733
											}
										}
									}
								}
								JOINT LeftHandPinky1
								{
									OFFSET 10.518692 -0.960396 -5.730441
									CHANNELS 3 Xrotation Yrotation Zrotation
									JOINT LeftHandPinky2
									{
										OFFSET 2.861649 0.000000 0.000000
										CHANNELS 3 Xrotation Yrotation Zrotation
										JOINT LeftHandPinky3
										{
											OFFSET 2.863380 0.000000 0.000000
											CHANNELS 3 Xrotation Yrotation Zrotation
											End Site
											{
												OFFSET -0.843597 2.711159 0.369971
											}
										}
									}
								}
							}
							JOINT LSleeve
							{
								OFFSET 6.676277 -0.344902 -1.011730
								CHANNELS 3 Xrotation Yrotation Zrotation
								End Site
								{
									OFFSET 0.000000 14.885353 0.000000
								}
							}
						}
					}
				}
				JOINT RightShoulder
				{
					OFFSET -6.197800 13.665199 -4.064700
					CHANNELS 3 Xrotation Yrotation Zrotation
					JOINT RightArm
					{
						OFFSET -7.778100 -0.187103 -1.709300
						CHANNELS 3 Xrotation Yrotation Zrotation
						JOINT RightForeArm
						{
							OFFSET -22.049376 0.000000 0.000000
							CHANNELS 3 Xrotation Yrotation Zrotation
							JOINT RightHand
							{
								OFFSET -23.009392 0.000000 0.000000
								CHANNELS 3 Xrotation Yrotation Zrotation
								JOINT RightHandThumb1
								{
									OFFSET -3.507191 -2.063065 3.133727
									CHANNELS 3 Xrotation Yrotation Zrotation
									JOINT RightHandThumb2
									{
										OFFSET -3.101337 -1.790558 1.790558
										CHANNELS 3 Xrotation Yrotation Zrotation
										JOINT RightHandThumb3
										{
											OFFSET -3.058640 -1.765907 1.765906
											CHANNELS 3 Xrotation Yrotation Zrotation
											End Site
											{
												OFFSET 0.415260 3.926476 -0.049563
											}
										}
									}
								}
								JOINT RightHandIndex1
								{
									OFFSET -11.334419 -0.901459 3.706815
									CHANNELS 3 Xrotation Yrotation Zrotation
									JOINT RightHandIndex2
									{
										OFFSET -3.283112 0.000000 0.000000
										CHANNELS 3 Xrotation Yrotation Zrotation
										JOINT RightHandIndex3
										{
											OFFSET -3.323853 0.000000 0.000000
											CHANNELS 3 Xrotation Yrotation Zrotation
											End Site
											{
												OFFSET 1.135597 3.097809 0.402452
											}
										}
									}
								}
								JOINT RightHandMiddle1
								{
									OFFSET -11.335861 0.000000 0.000000
									CHANNELS 3 Xrotation Yrotation Zrotation
									JOINT RightHandMiddle2
									{
										OFFSET -3.410492 0.000000 0.000000
										CHANNELS 3 Xrotation Yrotation Zrotation
										JOINT RightHandMiddle3
										{
											OFFSET -3.312172 0.000000 0.000000
											CHANNELS 3 Xrotation Yrotation Zrotation
											End Site
											{
												OFFSET 1.150200 3.080154 0.400270
											}
										}
									}
								}
								JOINT RightHandRing1
								{
									OFFSET -11.514786 -0.013176 -3.003090
									CHANNELS 3 Xrotation Yrotation Zrotation
									JOINT RightHandRing2
									{
										OFFSET -3.053307 0.000000 0.000000
										CHANNELS 3 Xrotation Yrotation Zrotation
										JOINT RightHandRing3
										{
											OFFSET -3.295807 0.000000 0.000000
											CHANNELS 3 Xrotation Yrotation Zrotation
											End Site
											{
												OFFSET 1.281006 3.013344 0.375733
											}
										}
									}
								}
								JOINT RightHandPinky1
								{
									OFFSET -10.518692 -0.960396 -5.730441
									CHANNELS 3 Xrotation Yrotation Zrotation
									JOINT RightHandPinky2
									{
										OFFSET -2.861649 0.000000 0.000000
										CHANNELS 3 Xrotation Yrotation Zrotation
										JOINT RightHandPinky3
										{
											OFFSET -2.863380 0.000000 0.000000
											CHANNELS 3 Xrotation Yrotation Zrotation
											End Site
											{
												OFFSET 0.843597 2.711159 0.369971
											}
										}
									}
								}
							}
							JOINT RSleeve
							{
								OFFSET -6.676277 -0.344902 -1.011730
								CHANNELS 3 Xrotation Yrotation Zrotation
								End Site
								{
									OFFSET 0.000000 14.885353 0.000000
								}
							}
						}
					}
				}
				JOINT Backpack
				{
					OFFSET 0.000000 -2.471497 36.677502
					CHANNELS 3 Xrotation Yrotation Zrotation
					End Site
					{
						OFFSET 0.000000 20.427315 0.000000
					}
				}
				JOINT Hood
				{
					OFFSET 0.000000 18.754097 -10.431000
					CHANNELS 3 Xrotation Yrotation Zrotation
					JOINT Hood1
					{
						OFFSET 0.000000 -5.011002 -7.685901
						CHANNELS 3 Xrotation Yrotation Zrotation
						End Site
						{
							OFFSET 0.000000 9.175140 0.000000
						}
					}
				}
				JOINT LHoodieString
				{
					OFFSET 5.250500 16.397697 3.089900
					CHANNELS 3 Xrotation Yrotation Zrotation
					JOINT LHoodieString1
					{
						OFFSET 0.257700 -6.364304 3.694600
						CHANNELS 3 Xrotation Yrotation Zrotation
						JOINT LHoodieString2
						{
							OFFSET 0.000000 -9.643799 2.679100
							CHANNELS 3 Xrotation Yrotation Zrotation
							End Site
							{
								OFFSET 0.000000 10.009018 0.000000
							}
						}
					}
				}
				JOINT RHoodieString
				{
					OFFSET -5.250500 16.397697 3.089900
					CHANNELS 3 Xrotation Yrotation Zrotation
					JOINT RHoodieString1
					{
						OFFSET -0.257700 -6.364304 3.694600
						CHANNELS 3 Xrotation Yrotation Zrotation
						JOINT RHoodieString2
						{
							OFFSET 0.000000 -9.643799 2.679100
							CHANNELS 3 Xrotation Yrotation Zrotation
							End Site
							{
								OFFSET 0.000000 10.009018 0.000000
							}
						}
					}
				}
			}
			JOINT LBackpack_Strap
			{
				OFFSET 15.223200 -7.719803 -6.610900
				CHANNELS 3 Xrotation Yrotation Zrotation
				End Site
				{
					OFFSET 0.000000 16.040596 0.000000
				}
			}
			JOINT RBackpack_Strap
			{
				OFFSET -15.223000 -7.719803 -6.610900
				CHANNELS 3 Xrotation Yrotation Zrotation
				End Site
				{
					OFFSET 0.000000 16.040596 0.000000
				}
			}
		}
	}
	JOINT BoyFacialAnim_Joint
	{
		OFFSET 1.000000 -82.208099 -1.550900
		CHANNELS 3 Xrotation Yrotation Zrotation
		End Site
		{
			OFFSET 0.000000 30.012791 0.000000
		}
	}
}
MOTION
Frames: 4
Frame Time: 0.033333
-0.208386 81.493530 0.901742 -5.275491 -8.471992 -2.446802 0.000000 -0.000000 -0.000000 -3.226778 7.257254 3.407151 20.356822 -7.645036 8.402132 -8.794949 25.464333 -8.044391 0.000000 -0.000000 -0.000000 0.000000 -0.000000 0.000000 -0.000000 -0.000001 -0.000000 -7.547739 -6.432073 -0.765061 18.459279 9.722443 -7.994614 -4.306494 -10.026477 6.793548 0.000000 0.000000 -0.000000 0.000000 0.000000 -0.000000 0.000000 -0.000000 0.000001 5.999123 1.117342 0.179357 2.183104 0.458552 0.247454 2.181727 0.466326 0.245000 3.647658 -0.784904 1.055627 9.508492 -1.444180 -4.986100 -0.000002 0.000000 0.000000 -0.000002 0.000000 0.000000 -0.000002 0.000000 0.000000 0.450345 0.278750 -5.436539 22.878050 -30.734396 -54.749096 0.000018 -79.359114 0.000030 27.424649 16.706732 44.228436 -0.477863 0.602401 1.246877 6.707310 16.477020 -2.194976 -0.000001 0.000000 0.000001 -2.627634 0.120139 -44.628186 2.473137 5.289130 -50.095660 -0.000001 -0.000001 -0.000004 0.523722 2.655730 -25.080827 0.280666 1.949543 -16.383112 -0.000001 -0.000002 0.000003 1.440434 4.639426 -24.622084 0.303135 2.024347 -17.031152 0.000001 0.000000 -0.000002 3.440080 10.096059 -20.924892 1.140989 -0.282371 -33.636370 -0.000000 0.000001 -0.000002 -0.000000 0.000001 0.000002 0.692648 -0.304018 12.849665 28.126173 38.678186 36.673874 -0.000021 80.436235 0.000044 12.544830 -9.194165 -24.935400 1.232084 -5.411686 -1.637351 9.927039 -13.978782 1.734073 -0.000001 -0.000000 -0.000003 -0.111007 -0.294875 12.879646 0.816357 -3.273971 27.994845 0.000003 -0.000004 0.000006 1.131437 -4.720680 16.966424 0.423576 -2.394136 20.064311 0.000003 0.000000 -0.000000 1.116776 -4.458882 18.467691 1.323101 -4.085284 35.878379 0.000001 -0.000002 0.000007 2.334138 -9.452543 14.896383 0.873868 -3.379777 28.986104 0.000002 0.000002 -0.000001 0.000001 -0.000003 -0.000003 0.000000 -0.000000 0.000000 0.000000 -0.000000 0.000000 0.000000 -0.000000 0.000000 0.000000 -0.000000 0.000000 0.000000 -0.000000 0.000000 -0.000000 0.000000 0.000000 0.000000 -0.000000 0.000000 0.000000 -0.000000 0.000000 -0.000000 0.000000 0.000000 0.000000 -0.000000 0.000000 0.000000 -0.000000 0.000000 0.000000 -0.000000 -0.000000 
-0.256428 81.496597 0.893881 -5.307051 -8.441321 -2.513989 0.000000 0.000000 -0.000000 -3.232861 7.302666 3.548082 20.376754 -7.650053 8.385169 -8.789850 25.372181 -8.089500 -0.000000 -0.000000 -0.000000 -0.000000 -0.000000 -0.000000 0.000000 -0.000000 0.000000 -7.470503 -6.440625 -0.673359 18.401699 9.723142 -7.944678 -4.290551 -10.055477 6.725715 -0.000000 0.000001 -0.000000 -0.000000 0.000001 -0.000000 0.000000 0.000000 -0.000001 5.993582 1.107444 0.188868 2.174247 0.454339 0.248303 2.172907 0.462005 0.245819 3.665436 -0.795307 1.079898 9.568999 -1.466088 -4.974175 0.000000 -0.000000 -0.000000 0.000000 -0.000000 -0.000000 0.000000 -0.000000 -0.000000 0.449774 0.345639 -5.494201 23.119673 -30.889237 -54.247381 -0.000047 -79.448747 -0.000066 27.337581 16.849798 43.881858 -0.412621 0.706063 1.179563 6.702474 16.464391 -2.190413 -0.000000 -0.000002 0.000000 -2.692451 0.108012 -44.959324 2.601468 5.393410 -51.474488 -0.000001 -0.000001 -0.000002 0.601329 2.821699 -25.136097 0.281546 1.952484 -16.408597 -0.000001 0.000001 0.000000 1.529613 4.813553 -24.832097 0.288693 1.976595 -16.617323 0.000002 0.000000 -0.000000 3.609828 10.322704 -21.433728 1.108562 -0.331529 -33.148452 -0.000000 0.000003 -0.000003 -0.000001 -0.000004 -0.000002 0.693390 -0.300866 12.875631 28.189907 38.840977 36.632285 0.000056 80.210272 -0.000034 12.639902 -9.123292 -25.336332 1.088812 -5.215159 -1.668223 9.858056 -13.865092 1.714669 0.000002 0.000001 -0.000003 -0.056204 -0.612039 13.813665 0.823141 -3.286719 28.113820 -0.000005 0.000003 0.000006 1.091812 -4.520045 17.456811 0.443590 -2.448167 20.537896 0.000004 0.000001 -0.000000 1.226538 -4.742109 18.747747 1.321011 -4.082375 35.849009 0.000002 -0.000001 0.000004 2.306264 -9.065126 15.498840 0.895700 -3.418849 29.354541 0.000003 -0.000001 -0.000003 0.000001 0.000002 -0.000003 -0.000000 -0.000000 0.000000 -0.000000 -0.000000 0.000000 -0.000000 -0.000000 0.000000 -0.000000 -0.000000 0.000000 -0.000000 -0.000000 0.000000 -0.000001 -0.000000 -0.000000 -0.000000 -0.000000 0.000000 -0.000000 -0.000000 0.000000 -0.000001 -0.000000 -0.000000 0.000000 0.000000 -0.000000 0.000000 0.000000 -0.000000 0.000000 0.000000 -0.000000 
-0.304644 81.503616 0.884014 -5.331953 -8.425536 -2.603436 -0.000000 -0.000001 -0.000000 -3.240079 7.342669 3.698700 20.385140 -7.651708 8.388411 -8.770900 25.309370 -8.148217 0.000000 -0.000000 0.000000 0.000000 -0.000000 0.000000 -0.000000 0.000000 0.000001 -7.376438 -6.456965 -0.569463 18.282156 9.706892 -7.868167 -4.243299 -10.038874 6.650074 0.000000 -0.000000 -0.000000 0.000000 -0.000000 -0.000000 0.000000 -0.000000 0.000000 5.992022 1.098735 0.211383 2.168797 0.450419 0.253082 2.167502 0.457953 0.250584 3.674217 -0.797104 1.097216 9.621486 -1.451549 -4.979043 -0.000000 0.000001 -0.000000 -0.000000 0.000001 -0.000000 -0.000000 0.000001 -0.000000 0.454677 0.392749 -5.691786 23.303963 -30.760085 -53.856677 -0.000288 -79.638291 -0.000307 27.576890 17.019264 43.388589 -0.346747 0.810355 1.109708 6.695804 16.446983 -2.184129 0.000001 -0.000001 0.000001 -2.758390 0.094732 -45.283184 2.732545 5.494749 -52.855883 -0.000001 0.000001 -0.000003 0.680070 2.989071 -25.188513 0.282444 1.955592 -16.435365 0.000001 -0.000001 -0.000002 1.620475 4.988250 -25.038563 0.274644 1.928955 -16.205175 0.000001 -0.000001 -0.000001 3.785052 10.550821 -21.943613 1.076599 -0.380971 -32.661084 0.000001 0.000000 0.000001 -0.000000 -0.000002 0.000000 0.693133 -0.290027 12.877281 28.308583 39.141984 36.543380 0.000085 79.885387 -0.000097 12.834281 -9.121156 -26.099521 0.967750 -5.048547 -1.693558 9.808287 -13.783036 1.700657 0.000002 0.000000 -0.000001 0.005102 -0.918509 14.726052 0.830944 -3.301248 28.249476 0.000001 0.000003 0.000002 1.046557 -4.321508 17.893115 0.463472 -2.500497 20.997963 0.000001 0.000000 -0.000000 1.331237 -5.008071 18.987900 1.317379 -4.077340 35.797903 -0.000001 0.000001 0.000006 2.272158 -8.694923 16.080229 0.913183 -3.449688 29.646259 0.000001 0.000001 0.000000 0.000002 0.000000 -0.000002 -0.000000 0.000000 -0.000000 -0.000000 0.000000 -0.000000 -0.000000 0.000000 -0.000000 -0.000000 0.000000 -0.000000 -0.000000 0.000000 0.000000 -0.000001 0.000000 0.000000 -0.000000 0.000000 -0.000000 -0.000000 0.000000 0.000000 -0.000001 0.000000 0.000000 -0.000000 0.000000 -0.000000 -0.000000 0.000000 -0.000000 -0.000000 -0.000001 -0.000000 
-0.350933 81.508682 0.874782 -5.350048 -8.436129 -2.688473 0.000000 0.000001 0.000000 -3.245499 7.368397 3.825353 20.396593 -7.651393 8.411564 -8.751690 25.292614 -8.214025 -0.000000 0.000002 -0.000000 -0.000000 0.000002 -0.000000 -0.000001 0.000000 0.000001 -7.306827 -6.461952 -0.473401 18.173738 9.613683 -7.794993 -4.201708 -9.929787 6.586931 -0.000000 -0.000000 -0.000000 -0.000000 -0.000000 -0.000000 -0.000000 0.000000 0.000001 5.988984 1.102563 0.226711 2.162771 0.451771 0.255394 2.161505 0.459174 0.252854 3.680389 -0.795969 1.116995 9.683753 -1.420037 -4.981543 0.000000 0.000000 -0.000000 0.000000 0.000000 -0.000000 0.000000 0.000000 -0.000000 0.462119 0.436256 -5.955764 23.432852 -30.448017 -53.579337 -0.000028 -79.881549 -0.000027 28.023126 17.188458 42.815635 -0.280981 0.914043 1.037660 6.687004 16.424013 -2.175813 -0.000001 -0.000000 0.000001 -2.824591 0.080199 -45.594392 2.864594 5.591856 -54.222580 -0.000000 -0.000001 -0.000002 0.758743 3.155411 -25.236162 0.283395 1.958771 -16.463006 0.000001 -0.000002 -0.000000 1.711649 5.161063 -25.238633 0.261158 1.881927 -15.799320 -0.000001 -0.000002 -0.000001 3.963111 10.776182 -22.448851 1.045347 -0.430151 -32.178254 -0.000001 0.000001 -0.000000 -0.000001 -0.000001 0.000000 0.693846 -0.285711 12.902577 28.507808 39.507252 36.373633 0.000044 79.532867 -0.000060 13.104012 -9.202247 -27.046074 0.866708 -4.909066 -1.716342 9.781616 -13.739001 1.693154 0.000001 0.000001 -0.000003 0.070457 -1.206932 15.602970 0.839309 -3.316722 28.394215 -0.000000 0.000001 0.000000 0.998404 -4.130402 18.279171 0.482715 -2.550017 21.434920 -0.000000 -0.000001 -0.000000 1.428437 -5.252867 19.184167 1.312045 -4.069991 35.722893 -0.000001 -0.000002 0.000000 2.233519 -8.345779 16.636526 0.925766 -3.471687 29.854969 -0.000002 0.000000 0.000002 -0.000002 0.000001 -0.000003 0.000000 0.000000 -0.000000 0.000000 0.000000 -0.000000 0.000000 0.000000 -0.000000 0.000000 0.000000 -0.000000 0.000000 0.000000 -0.000000 -0.000000 0.000000 -0.000000 0.000000 0.000000 -0.000000 0.000000 0.000000 -0.000000 -0.000000 0.000000 -0.000000 -0.000000 0.000000 -0.000000 -0.000000 0.000000 -0.000000 0.000000 0.000001 0.000000 
